<svg version="1.0" xmlns="http://www.w3.org/2000/svg" preserveAspectRatio="xMidYMid meet" viewBox="156 136.45 712 725.53">  <g transform="translate(0.000000,1024.000000) scale(0.100000,-0.100000)" fill="#000000" stroke="none"> <path d="M5076 8864 c-15 -9 -104 -67 -198 -130 l-169 -114 -1575 0 -1574 0 0 -3493 0 -3494 152 -6 c198 -9 6343 -9 6696 0 l272 6 -1 3386 c-1 1862 -4 3433 -8 3491 l-6 105 -1575 5 -1575 5 -182 122 c-100 67 -192 125 -205 128 -13 2 -36 -2 -52 -11z m266 -441 c468 -307 723 -475 1318 -868 157 -103 362 -239 456 -301 95 -62 260 -172 368 -243 l197 -131 195 0 194 0 0 33 c0 30 -8 37 -163 138 -89 59 -324 214 -522 344 -362 240 -558 369 -1000 660 -377 248 -525 347 -531 356 -3 5 588 9 1312 9 l1317 0 -6 -497 c-4 -273 -7 -1758 -7 -3300 l0 -2803 -3355 0 -3355 0 0 3300 0 3300 1317 0 c1109 0 1315 -2 1303 -14 -20 -18 -209 -143 -1260 -837 -858 -565 -955 -632 -958 -661 l-3 -28 199 0 200 0 173 113 c96 63 397 261 669 441 272 181 608 402 745 493 138 91 412 272 610 403 198 131 361 239 362 239 1 1 102 -65 225 -146z"></path> <path d="M4657 7873 c-4 -3 -7 -231 -7 -505 l0 -498 230 0 230 0 0 445 c0 389 2 445 15 445 13 0 15 -56 15 -445 l0 -445 225 0 225 0 0 493 c0 370 -3 496 -12 505 -9 9 -126 12 -463 12 -249 0 -455 -3 -458 -7z m353 -558 l0 -65 -50 0 -50 0 0 59 0 60 48 4 c26 2 48 4 50 5 1 1 2 -27 2 -63z m330 -5 l0 -60 -55 0 -55 0 0 60 0 60 55 0 55 0 0 -60z"></path> <path d="M6215 6609 c-284 -42 -565 -182 -740 -370 -232 -249 -353 -565 -371 -969 -15 -314 45 -628 166 -872 180 -365 510 -599 935 -664 146 -23 369 -14 496 19 194 51 362 157 472 299 l62 80 3 -181 2 -181 230 0 230 0 0 760 0 760 -615 0 -615 0 2 -237 3 -238 323 -3 322 -2 0 -29 c0 -46 -28 -169 -49 -217 -68 -152 -215 -276 -382 -321 -89 -23 -299 -23 -394 0 -158 40 -317 155 -404 292 -142 225 -192 563 -134 915 33 205 105 353 232 481 136 136 306 197 525 186 285 -13 480 -152 557 -397 l17 -55 288 -3 c158 -1 291 1 295 5 11 12 -8 130 -37 223 -119 386 -466 655 -928 719 -90 13 -404 13 -491 0z"></path> <path d="M2528 6584 c-5 -4 -8 -639 -8 -1411 l0 -1404 783 4 c743 3 787 5 872 24 441 100 694 407 672 818 -7 131 -23 193 -76 300 -69 140 -184 246 -348 322 l-74 34 63 31 c91 46 204 161 251 258 54 110 71 186 71 315 0 198 -57 338 -189 470 -88 89 -147 125 -290 175 -155 54 -212 58 -1000 65 -396 4 -723 3 -727 -1z m1344 -505 c108 -23 193 -85 232 -169 29 -62 28 -195 -1 -261 -27 -59 -87 -120 -155 -156 l-53 -28 -377 -3 -378 -3 0 315 0 316 340 0 c213 0 359 -4 392 -11z m48 -1090 c136 -21 239 -92 289 -198 23 -49 26 -69 26 -156 0 -87 -4 -107 -26 -156 -32 -68 -88 -131 -145 -165 -80 -47 -147 -54 -551 -54 l-373 0 0 370 0 370 358 0 c197 0 386 -5 422 -11z"></path> <path d="M2698 3227 c-155 -59 -225 -174 -216 -356 9 -176 106 -282 271 -298 126 -11 238 46 289 147 15 30 24 58 22 62 -3 4 -34 8 -69 8 -61 0 -65 -2 -80 -29 -47 -92 -177 -104 -252 -25 -39 41 -58 122 -49 207 7 67 22 101 64 140 73 69 209 46 243 -40 8 -21 15 -23 74 -23 72 0 75 4 50 63 -38 91 -124 146 -239 153 -46 3 -84 0 -108 -9z"></path> <path d="M3450 3220 c-75 -25 -149 -104 -175 -186 -27 -83 -25 -201 5 -278 57 -149 218 -219 387 -168 59 18 78 30 120 75 63 67 86 131 86 242 0 116 -22 176 -92 245 -46 46 -67 59 -117 73 -78 22 -145 21 -214 -3z m177 -101 c41 -15 91 -67 104 -108 18 -52 14 -169 -5 -216 -43 -103 -141 -142 -242 -96 -63 29 -87 76 -92 182 -5 97 6 144 46 191 45 53 122 72 189 47z"></path> <path d="M4096 3221 c-10 -16 -6 -603 5 -622 7 -15 21 -19 59 -19 l50 0 0 220 c0 121 3 220 8 220 4 0 18 -26 31 -58 159 -384 155 -377 182 -380 14 -2 30 3 36 10 5 7 48 106 94 220 78 194 103 240 99 186 -1 -13 -2 -112 -1 -220 l1 -198 60 0 60 0 -2 323 -3 322 -77 3 -77 3 -19 -38 c-10 -21 -50 -113 -88 -205 -38 -93 -72 -168 -75 -168 -3 0 -43 90 -88 199 -46 110 -89 202 -98 205 -23 9 -151 7 -157 -3z"></path> <path d="M5035 3217 c-3 -7 -4 -152 -3 -322 l3 -310 63 -3 62 -3 0 114 0 114 108 5 c168 7 230 46 254 161 23 110 -35 209 -141 241 -70 21 -339 23 -346 3z m310 -113 c40 -19 60 -61 51 -107 -11 -58 -35 -71 -142 -75 l-94 -4 0 101 0 101 76 0 c48 0 88 -6 109 -16z"></path> <path d="M5850 3210 c-6 -10 -32 -77 -59 -147 -26 -70 -76 -201 -111 -291 -34 -90 -59 -170 -56 -178 4 -11 19 -14 63 -12 l56 3 25 73 24 72 128 0 129 0 20 -57 c32 -88 31 -88 100 -91 48 -2 61 0 61 12 0 29 -230 611 -247 624 -9 6 -41 12 -70 12 -42 0 -54 -4 -63 -20z m114 -247 c22 -60 41 -114 44 -120 3 -10 -19 -13 -88 -13 -69 0 -91 3 -88 13 48 134 84 227 88 227 3 0 23 -48 44 -107z"></path> <path d="M6425 3198 c-3 -18 -5 -163 -3 -323 l3 -290 60 0 60 0 5 214 5 214 139 -217 138 -217 67 3 66 3 0 320 0 320 -63 3 -63 3 3 -221 c2 -121 1 -220 -2 -220 -3 0 -57 81 -120 181 -179 281 -160 259 -230 259 -59 0 -59 0 -65 -32z"></path> <path d="M7160 3220 c0 -6 49 -89 110 -185 l109 -174 3 -138 3 -138 60 0 60 0 3 133 3 134 110 175 c61 97 113 182 116 189 4 11 -9 14 -61 14 l-66 0 -37 -60 c-21 -33 -57 -90 -79 -126 l-41 -66 -54 87 c-107 172 -100 165 -174 165 -38 0 -65 -4 -65 -10z"></path> </g> </svg>