<svg width="24" height="24" viewBox="0 0 24 24" fill="none" xmlns="http://www.w3.org/2000/svg">
<path d="M10 11.9996V8.96362M14 11.9996V8.96362M8.5 20.9995H5C4.46957 20.9995 3.96086 20.7888 3.58579 20.4137C3.21071 20.0386 3 19.5299 3 18.9995V9.99948C2.99993 9.70855 3.06333 9.4211 3.18579 9.1572C3.30824 8.89329 3.4868 8.65928 3.709 8.47148L10.709 2.47248C11.07 2.16739 11.5274 2 12 2C12.4726 2 12.93 2.16739 13.291 2.47248L20.291 8.47148C20.5132 8.65928 20.6918 8.89329 20.8142 9.1572C20.9367 9.4211 21.0001 9.70855 21 9.99948V18.9995C21 19.5299 20.7893 20.0386 20.4142 20.4137C20.0391 20.7888 19.5304 20.9995 19 20.9995H14C13.4696 20.9995 12.9609 20.7888 12.5858 20.4137C12.2107 20.0386 12 19.5299 12 18.9995V16.9995M15 11.9995C15.2652 11.9995 15.5196 12.1049 15.7071 12.2924C15.8946 12.4799 16 12.7343 16 12.9995V14.9995C16 15.5299 15.7893 16.0387 15.4142 16.4137C15.0391 16.7888 14.5304 16.9995 14 16.9995H10C9.46957 16.9995 8.96086 16.7888 8.58579 16.4137C8.21071 16.0387 8 15.5299 8 14.9995V12.9995C8 12.7343 8.10536 12.4799 8.29289 12.2924C8.48043 12.1049 8.73478 11.9995 9 11.9995H15Z" stroke="black" stroke-width="2" stroke-linecap="round" stroke-linejoin="round"/>
</svg>
