<svg width="24" height="24" viewBox="0 0 24 24" fill="none" xmlns="http://www.w3.org/2000/svg">
<path d="M21.2104 15.8906C20.5742 17.395 19.5792 18.7208 18.3123 19.7519C17.0454 20.783 15.5452 21.488 13.9428 21.8053C12.3405 22.1227 10.6848 22.0427 9.12055 21.5724C7.55627 21.102 6.13103 20.2556 4.96942 19.1072C3.80782 17.9588 2.94522 16.5433 2.45704 14.9845C1.96886 13.4257 1.86996 11.7711 2.169 10.1652C2.46804 8.55935 3.1559 7.05119 4.17245 5.7726C5.189 4.494 6.50329 3.48388 8.0004 2.83057M21.0005 12.0004C21.5525 12.0004 22.0055 11.5514 21.9505 11.0024C21.7199 8.70658 20.7025 6.56111 19.0708 4.92973C17.439 3.29835 15.2933 2.28144 12.9975 2.05141C12.4475 1.99641 11.9995 2.44941 11.9995 3.00141V11.0014C11.9995 11.2666 12.1048 11.521 12.2923 11.7085C12.4799 11.8961 12.7342 12.0014 12.9995 12.0014L21.0005 12.0004Z" stroke="black" stroke-width="2" stroke-linecap="round" stroke-linejoin="round"/>
</svg>
