<svg
  xmlns="http://www.w3.org/2000/svg"
  viewBox="0 0 28 27"
  fill="none"
>
  <path
    d="M15.3337 9.49996H12.667V6.83329H15.3337M15.3337 20.1666H12.667V12.1666H15.3337M14.0003 0.166626C12.2494 0.166626 10.5156 0.511503 8.89788 1.18157C7.2802 1.85163 5.81035 2.83375 4.57224 4.07187C2.07175 6.57235 0.666992 9.96374 0.666992 13.5C0.666992 17.0362 2.07175 20.4276 4.57224 22.9281C5.81035 24.1662 7.2802 25.1483 8.89788 25.8184C10.5156 26.4884 12.2494 26.8333 14.0003 26.8333C17.5365 26.8333 20.9279 25.4285 23.4284 22.9281C25.9289 20.4276 27.3337 17.0362 27.3337 13.5C27.3337 11.749 26.9888 10.0152 26.3187 8.39751C25.6487 6.77984 24.6665 5.30998 23.4284 4.07187C22.1903 2.83375 20.7204 1.85163 19.1028 1.18157C17.4851 0.511503 15.7513 0.166626 14.0003 0.166626V0.166626Z"
    fill="currentColor"
  />
</svg>
