<svg
  width="42"
  height="40"
  viewBox="0 0 42 40"
  fill="none"
  xmlns="http://www.w3.org/2000/svg"
>
  <path
    fill-rule="evenodd"
    clip-rule="evenodd"
    d="M41.2816 8.022C41.2713 7.98249 41.2483 7.94741 41.2161 7.92211C41.1839 7.89681 41.1442 7.88267 41.1032 7.88185H20.9868C20.9506 7.87755 20.9168 7.86141 20.8908 7.83596C20.8648 7.81051 20.848 7.7772 20.8431 7.74125C20.831 7.70512 20.8207 7.66841 20.8124 7.63125C19.7393 3.25191 15.759 0 11.025 0C5.4478 0 0.941406 4.48934 0.941406 10.0236C0.941406 15.5579 5.4478 20.0472 11.025 20.0472C15.759 20.0472 19.7393 16.798 20.8124 12.408C20.8209 12.3741 20.8311 12.3406 20.8431 12.3078C20.8501 12.2711 20.8687 12.2377 20.8963 12.2124C20.9238 12.1872 20.9589 12.1715 20.9962 12.1676H31.8013C31.8386 12.1681 31.8742 12.183 31.9006 12.2091C31.927 12.2353 31.9421 12.2707 31.9427 12.3078V13.9599C31.9362 14.0471 31.8969 14.1287 31.8325 14.1883L29.7355 15.7096C29.7002 15.7371 29.671 15.7716 29.65 15.8109C29.6289 15.8503 29.6164 15.8935 29.6132 15.938V19.8947C29.6138 19.9324 29.6291 19.9684 29.6559 19.995C29.6827 20.0217 29.719 20.0369 29.7569 20.0375H31.8022C31.8398 20.0368 31.8757 20.0214 31.9022 19.9947C31.9286 19.9681 31.9435 19.9321 31.9436 19.8947V17.1107C31.9465 17.0664 31.9586 17.0233 31.9792 16.984C31.9998 16.9446 32.0284 16.91 32.0632 16.8823L35.3203 14.5107C35.3551 14.4898 35.3949 14.4788 35.4356 14.4788C35.4763 14.4788 35.5161 14.4898 35.5509 14.5107L38.808 16.8823C38.8428 16.91 38.8714 16.9446 38.892 16.984C38.9126 17.0233 38.9247 17.0664 38.9276 17.1107V19.8911C38.9277 19.9286 38.9426 19.9645 38.969 19.9912C38.9955 20.0179 39.0314 20.0332 39.069 20.0339H41.1143C41.1332 20.0344 41.152 20.0311 41.1695 20.024C41.187 20.017 41.2029 20.0065 41.2161 19.9931C41.2293 19.9797 41.2397 19.9637 41.2464 19.9461C41.2531 19.9286 41.2562 19.9099 41.2553 19.8911V15.9344C41.2526 15.8902 41.2406 15.8469 41.22 15.8076C41.1994 15.7682 41.1707 15.7336 41.1357 15.706L36.3701 12.2519C36.3059 12.1978 36.3157 12.1632 36.404 12.1632H41.1045C41.1456 12.1623 41.1853 12.148 41.2175 12.1226C41.2497 12.0973 41.2727 12.0621 41.283 12.0226C41.283 12.0226 41.3811 11.4132 41.4365 10.8038C41.4676 10.5448 41.4847 10.2844 41.4878 10.0236C41.4878 9.28338 41.2816 8.022 41.2816 8.022ZM3.92722 13.2613C3.46633 12.2434 3.22801 11.1399 3.22801 10.0236C3.22801 8.90736 3.46633 7.80381 3.92722 6.7859C3.98166 8.44689 5.16269 9.44704 6.13714 10.0564C5.17474 10.6521 4.01557 11.6425 3.92722 13.2613ZM14.358 14.0654C13.9774 19.4143 5.93859 18.9442 5.61288 14.3276C5.50491 12.8156 6.81756 11.1209 8.4122 12.1636C9.46339 12.8493 9.10154 14.5866 7.16692 14.6323C7.93077 16.2844 9.66953 16.653 10.7421 16.2289C12.5791 15.5224 12.9498 13.1961 12.3484 11.9463C14.1541 12.5442 16.0771 12.0749 17.8274 10.0875V10.0236C16.0771 8.04551 14.1541 7.56739 12.3484 8.17679C12.9494 6.91541 12.5786 4.58913 10.7421 3.88216C9.67131 3.45859 7.93122 3.8276 7.16692 5.48194C9.10154 5.5263 9.46339 7.2649 8.4122 7.94793C6.81712 8.99065 5.50491 7.29595 5.61288 5.78398C5.94082 1.16602 13.9796 0.697662 14.3602 6.0461C17.433 6.42709 18.7773 8.78619 19.0424 10.0573C18.7765 11.3262 17.7061 13.5115 14.358 14.0659V14.0654ZM34.5029 12.2514L33.2214 13.1757C33.1567 13.2201 33.1135 13.197 33.1135 13.1092V12.3042C33.1124 12.2855 33.1154 12.2669 33.1221 12.2494C33.1288 12.2319 33.1392 12.2161 33.1525 12.2028C33.1658 12.1896 33.1817 12.1793 33.1993 12.1726C33.2169 12.166 33.2357 12.163 33.2545 12.1641H34.469C34.5457 12.1641 34.5671 12.1969 34.5029 12.2519V12.2514ZM36.4589 16.9674C36.4964 16.9684 36.5321 16.9839 36.5584 17.0105C36.5847 17.0372 36.5996 17.0729 36.5999 17.1102V19.8907C36.5999 19.9281 36.5851 19.964 36.5588 19.9907C36.5324 20.0174 36.4965 20.0328 36.4589 20.0335H34.4141C34.3764 20.0328 34.3406 20.0174 34.3142 19.9907C34.2878 19.964 34.2731 19.9281 34.2731 19.8907V17.1107C34.2734 17.0734 34.2883 17.0376 34.3146 17.011C34.3409 16.9843 34.3765 16.9689 34.4141 16.9679L36.4589 16.9674Z"
    fill="#003D1C"
  />
  <path
    fill-rule="evenodd"
    clip-rule="evenodd"
    d="M41.0131 28.1636C40.9515 28.1729 40.7757 28.18 40.7374 28.18C40.2974 28.18 39.8004 27.9365 39.8004 27.4376C39.8004 27.0827 40.1239 26.8858 40.483 26.8858C40.6544 26.8894 40.825 26.9093 40.9926 26.9453C41.0091 27.1741 41.0131 27.7019 41.0131 28.1636ZM41.4776 30.0042C41.4513 29.5004 41.4423 28.8001 41.4423 28.223C41.4423 27.7024 41.4463 26.9191 41.4776 26.6658C41.3437 26.6756 40.9993 26.6778 40.9373 26.6778C40.8279 26.6778 40.5562 26.6658 40.4233 26.6658C39.6831 26.6658 39.3596 27.1063 39.3596 27.5653C39.3596 28.0146 39.7071 28.3636 40.2876 28.4146C39.9115 28.8662 39.2525 29.633 38.9045 30.0042C38.9906 29.9971 39.1548 29.99 39.2355 29.99C39.3355 29.99 39.4448 29.9971 39.5447 30.0042C39.8642 29.5643 40.4612 28.7832 40.8279 28.4146H41.0131C41.0131 28.8072 41.0042 29.5004 40.9756 30.0042C41.0515 29.9994 41.1849 29.99 41.2433 29.99C41.2804 29.9896 41.404 29.9989 41.4776 30.0038V30.0042ZM37.47 28.4333C37.3134 28.4519 37.1086 28.4665 37.0015 28.4665C36.8409 28.4643 36.6804 28.4532 36.521 28.4333L37.0015 27.3653C37.2773 27.9645 37.3701 28.1774 37.47 28.4328V28.4333ZM38.6912 29.9994C38.3414 29.354 37.3464 27.0916 37.1742 26.6778H37.0555C36.9007 27.0184 35.8508 29.4037 35.489 29.9994C35.5363 29.9945 35.6228 29.99 35.6889 29.99C35.7438 29.99 35.8156 29.9971 35.8673 29.9994C35.9566 29.7607 36.2154 29.0578 36.3724 28.7508C36.5677 28.7222 36.7649 28.7086 36.9623 28.71C37.1828 28.7081 37.4031 28.7218 37.6217 28.7508C37.7457 29.0081 38.017 29.692 38.1478 29.9994C38.2267 29.9945 38.3619 29.99 38.4239 29.99C38.486 29.99 38.6158 29.9967 38.6912 29.9989V29.9994ZM35.2556 30.0042C34.8188 29.5385 34.0001 28.6337 33.5932 28.1636C34.1121 27.6527 34.7568 27.0655 35.2066 26.6658C35.1427 26.6685 35.033 26.6778 34.9616 26.6778C34.8902 26.6778 34.7903 26.6685 34.7095 26.6658C34.3646 27.0468 33.5494 27.901 33.1479 28.1947C33.1479 27.7024 33.1524 26.9191 33.188 26.6658C33.1091 26.6685 32.998 26.6778 32.9547 26.6778C32.8931 26.6778 32.7691 26.6685 32.6834 26.6658C32.7169 26.9191 32.7213 27.7024 32.7213 28.223C32.7213 28.7996 32.712 29.5004 32.6834 30.0042C32.7597 29.9994 32.8931 29.99 32.948 29.99C32.9855 29.99 33.1091 29.9994 33.188 30.0042C33.1568 29.5004 33.1479 28.8001 33.1479 28.3188C33.6423 28.8364 34.2446 29.4942 34.6301 30.0042C34.7113 29.9971 34.8684 29.99 34.9496 29.99C35.0522 29.9896 35.1566 29.9967 35.257 30.0038L35.2556 30.0042ZM32.1324 26.8344C31.7754 26.657 31.356 26.6126 31.0111 26.6126C29.8903 26.6126 29.1372 27.2916 29.1372 28.3663C29.1372 29.4188 29.8511 30.0628 30.9054 30.0628C31.2935 30.0713 31.6769 29.9771 32.0164 29.79L32.0641 29.5017L32.0262 29.4498C31.6505 29.7665 31.2909 29.8446 30.9862 29.8446C30.0577 29.8446 29.6508 29.0906 29.6508 28.3614C29.6508 27.6043 30.0362 26.826 30.9813 26.826C31.2713 26.826 31.5858 26.9147 31.9356 27.2251H32.0124L32.1324 26.8344ZM28.5184 30.0042C28.4871 29.5004 28.4782 28.8001 28.4782 28.223C28.4782 27.7024 28.4849 26.9191 28.5184 26.6658C28.4398 26.6685 28.326 26.6778 28.285 26.6778C28.2234 26.6778 28.0994 26.6685 28.0137 26.6658C28.0467 26.9191 28.0516 27.7024 28.0516 28.062C27.6501 28.0882 27.3213 28.0993 27.1147 28.0993C26.901 28.0993 26.5003 28.0882 25.9992 28.0669C25.9992 27.7024 26.0064 26.9191 26.0394 26.6658C25.9613 26.6685 25.8493 26.6778 25.8065 26.6778C25.7445 26.6778 25.6204 26.6685 25.5348 26.6658C25.5682 26.9191 25.5731 27.7024 25.5731 28.223C25.5731 28.7996 25.5633 29.5004 25.5348 30.0042C25.6111 29.9994 25.7445 29.99 25.8025 29.99C25.8377 29.99 25.9622 29.9994 26.0403 30.0042C26.0095 29.5004 26.0001 28.7508 26.0001 28.3787C26.4994 28.3503 26.809 28.3437 27.0875 28.3437C27.3494 28.3437 27.6492 28.3503 28.049 28.3787C28.049 28.7411 28.0401 29.5004 28.011 30.0042C28.0873 29.9994 28.2208 29.99 28.2788 29.99C28.3167 29.9896 28.4403 29.9989 28.5188 30.0038L28.5184 30.0042ZM23.8393 28.4328C23.6822 28.4515 23.4774 28.4661 23.3686 28.4661C23.2078 28.4638 23.0472 28.4527 22.8876 28.4328L23.3686 27.3653C23.6443 27.9645 23.7393 28.1774 23.8393 28.4328ZM25.0605 29.9989C24.7084 29.3536 23.7157 27.0912 23.5435 26.6774H23.4248C23.2677 27.018 22.2201 29.4033 21.856 29.9989C21.9033 29.994 21.9899 29.9896 22.0555 29.9896C22.113 29.9896 22.1844 29.9967 22.2366 29.9989C22.3227 29.7603 22.5846 29.0573 22.7395 28.7504C22.9347 28.7219 23.1319 28.7083 23.3293 28.7096C23.5506 28.7077 23.7717 28.7213 23.991 28.7504C24.115 29.0063 24.3827 29.6916 24.5166 29.9989C24.5924 29.994 24.7303 29.9896 24.7923 29.9896C24.8543 29.9896 24.9842 29.9967 25.0605 29.9989ZM21.7141 26.959C21.7097 26.9093 21.6999 26.8379 21.6999 26.8078C21.6999 26.7696 21.7097 26.6987 21.7141 26.6419C21.4763 26.6565 20.8981 26.6774 20.4599 26.6774C20.0289 26.6774 19.4435 26.6565 19.2057 26.6419C19.2102 26.6987 19.22 26.7696 19.22 26.8078C19.22 26.8379 19.2102 26.9093 19.2057 26.959C19.3722 26.9351 19.6198 26.9209 20.1365 26.9209H20.2257C20.24 27.1741 20.2449 27.8651 20.2449 28.2226C20.2449 28.7992 20.2355 29.4999 20.2065 30.0038C20.2828 29.9989 20.4162 29.9896 20.4742 29.9896C20.5121 29.9896 20.6357 29.9989 20.712 30.0038C20.6835 29.4999 20.6741 28.7996 20.6741 28.2226C20.6741 27.8651 20.679 27.1741 20.6933 26.9209H20.7825C21.3041 26.9217 21.5495 26.9351 21.7164 26.959H21.7141ZM18.9925 26.8339C18.6355 26.6565 18.217 26.6122 17.8712 26.6122C16.7477 26.6122 15.9973 27.2912 15.9973 28.3659C15.9973 29.4183 16.7138 30.0623 17.7655 30.0623C18.154 30.0708 18.5378 29.9767 18.8778 29.7896L18.9251 29.5013L18.8867 29.4494C18.511 29.7661 18.1514 29.8441 17.8467 29.8441C16.9186 29.8441 16.5117 29.0901 16.5117 28.361C16.5117 27.6039 16.8972 26.8255 17.8418 26.8255C18.1327 26.8255 18.4446 26.9142 18.7966 27.2247H18.8729L18.9925 26.8339ZM15.6626 30.0038C15.3503 29.5603 14.661 28.4661 14.4892 28.1632C14.8421 27.6474 15.3628 26.9093 15.5676 26.6654C15.506 26.6746 15.4438 26.6786 15.3815 26.6774C15.3094 26.6782 15.2372 26.6742 15.1656 26.6654C15.0764 26.8428 14.6462 27.5245 14.3442 27.9547C14.1563 27.6664 13.7642 26.9994 13.5826 26.6654C13.4986 26.6737 13.4144 26.6777 13.33 26.6774C13.2256 26.6774 13.14 26.6774 13.0115 26.6654C13.1493 26.8215 13.9484 28.078 14.0823 28.3122C13.993 28.4847 13.1159 29.7532 12.9222 30.0038C12.9842 29.9967 13.0793 29.9896 13.1431 29.9896C13.2044 29.9906 13.2657 29.9953 13.3265 30.0038C13.5362 29.6228 13.931 28.9837 14.2309 28.5295C14.4986 28.973 14.876 29.613 15.067 30.0038C15.1562 29.9989 15.2669 29.9896 15.3472 29.9896C15.4449 29.9896 15.5614 29.9967 15.6662 30.0038H15.6626ZM11.5261 28.4328C11.3691 28.4515 11.1643 28.4661 11.055 28.4661C10.895 28.4638 10.7354 28.4527 10.5767 28.4328L11.0585 27.3653C11.3347 27.9645 11.4298 28.1774 11.5297 28.4328H11.5261ZM12.7473 29.9989C12.3948 29.3536 11.4025 27.0912 11.2303 26.6774H11.1107C10.9568 27.018 9.90606 29.4033 9.5451 29.9989C9.58972 29.994 9.67895 29.9896 9.74231 29.9896C9.80567 29.9896 9.87081 29.9967 9.92346 29.9989C10.0091 29.7603 10.271 29.0573 10.4276 28.7504C10.6232 28.7218 10.8207 28.7081 11.0184 28.7096C11.2387 28.7077 11.459 28.7213 11.6774 28.7504C11.8014 29.0076 12.0731 29.6916 12.2034 29.9989C12.2797 29.994 12.418 29.9896 12.4801 29.9896C12.5421 29.9896 12.6746 29.9967 12.7509 29.9989H12.7473ZM9.25597 29.0622C9.25597 28.6577 9.00121 28.3286 8.33953 28.2319C8.98425 28.078 9.10784 27.7352 9.10784 27.4411C9.10784 26.7883 8.51532 26.6108 7.9277 26.6108C7.57076 26.6108 7.21382 26.6995 6.99475 26.9093C7.04009 27.0179 7.0781 27.1293 7.10852 27.2429L7.18482 27.2571C7.36329 26.9497 7.56541 26.8242 7.9277 26.8242C8.2726 26.8242 8.6581 27.0584 8.6581 27.4509C8.6581 27.8132 8.34845 28.1397 7.93663 28.1397C7.79484 28.1355 7.65343 28.1228 7.51321 28.1015C7.52713 28.1524 7.53344 28.205 7.53195 28.2576C7.53258 28.3053 7.52794 28.3529 7.51811 28.3996C7.65388 28.3811 7.79068 28.371 7.9277 28.3694C8.44839 28.3694 8.77276 28.6267 8.77276 29.0622C8.77276 29.5731 8.48186 29.8428 7.96518 29.8428C7.61315 29.8428 7.33206 29.7013 7.06123 29.3549L6.99475 29.3638C6.98195 29.4827 6.95469 29.5996 6.91354 29.712C7.23702 29.998 7.62297 30.0623 7.95626 30.0623C8.60946 30.061 9.25954 29.7319 9.25954 29.0622H9.25597ZM5.5527 28.4328C5.39609 28.4515 5.1913 28.4661 5.08198 28.4661C4.92116 28.4638 4.76059 28.4527 4.601 28.4328L5.08466 27.3653C5.3604 27.9645 5.45543 28.1774 5.55404 28.4328H5.5527ZM6.77389 29.9989C6.42141 29.3536 5.42911 27.0912 5.25689 26.6774H5.1382C4.98115 27.018 3.93129 29.4033 3.56989 29.9989C3.61718 29.994 3.70374 29.9896 3.76978 29.9896C3.82644 29.9896 3.89828 29.9967 3.94825 29.9989C4.03391 29.7603 4.29582 29.0573 4.45287 28.7504C4.64726 28.7219 4.84356 28.7082 5.04004 28.7096C5.26145 28.7076 5.48271 28.7212 5.70217 28.7504C5.82621 29.0076 6.09481 29.6916 6.22821 29.9989C6.30451 29.994 6.44238 29.9896 6.5044 29.9896C6.56642 29.9896 6.70027 29.9967 6.77657 29.9989H6.77389ZM3.51679 30.0038C3.08043 29.5385 2.26393 28.6337 1.85701 28.1636C2.37369 27.6527 3.01707 27.0655 3.47084 26.6658C3.40391 26.6685 3.29504 26.6778 3.22321 26.6778C3.15137 26.6778 3.05411 26.6685 2.97335 26.6658C2.62578 27.0468 1.81329 27.901 1.41173 28.1947C1.41173 27.7024 1.41619 26.9191 1.44921 26.6658C1.37336 26.6685 1.25914 26.6778 1.21586 26.6778C1.15428 26.6778 1.03069 26.6685 0.94458 26.6658C0.97849 26.9191 0.982951 27.7024 0.982951 28.223C0.982951 28.7996 0.973582 29.5004 0.94458 30.0042C1.02088 29.9994 1.15428 29.99 1.21229 29.99C1.24977 29.99 1.3738 29.9994 1.44965 30.0042C1.4211 29.5004 1.41217 28.8001 1.41217 28.3188C1.90297 28.8364 2.50932 29.4942 2.89438 30.0042C2.97558 29.9971 3.1304 29.99 3.21116 29.99C3.31378 29.9896 3.42087 29.9967 3.51858 30.0038H3.51679Z"
    fill="#003D1C"
  />
  <path
    fill-rule="evenodd"
    clip-rule="evenodd"
    d="M40.9997 33.1311C40.9381 33.1408 40.7597 33.1501 40.724 33.1501C40.2814 33.1501 39.787 32.9067 39.787 32.4072C39.787 32.0524 40.1105 31.8537 40.4723 31.8537C40.6434 31.8572 40.8137 31.8778 40.9805 31.9154C40.993 32.1451 40.9997 32.6725 40.9997 33.1311ZM41.4642 34.9744C41.4356 34.4705 41.4263 33.7702 41.4263 33.1932C41.4263 32.672 41.4307 31.8866 41.4642 31.6333C41.3259 31.6431 40.9832 31.6479 40.9212 31.6479C40.8145 31.6479 40.5428 31.6333 40.4099 31.6333C39.6697 31.6333 39.3457 32.0768 39.3457 32.5354C39.3457 32.9847 39.6911 33.3338 40.2715 33.3843C39.8959 33.8363 39.2364 34.6031 38.8884 34.9744C38.9745 34.9646 39.1414 34.9597 39.2217 34.9597C39.3216 34.9597 39.4292 34.9646 39.5313 34.9744C39.8481 34.5339 40.4478 33.7507 40.8145 33.3843H40.9997C40.9997 33.7746 40.9908 34.4705 40.9596 34.9744C41.0381 34.9695 41.1715 34.9597 41.2273 34.9597C41.2643 34.9602 41.3879 34.9699 41.4642 34.9748V34.9744ZM36.1971 33.4034C36.0407 33.4225 35.8834 33.4337 35.7259 33.4371C35.5651 33.4347 35.4045 33.4235 35.2449 33.4034L35.7259 32.3327C36.0016 32.9355 36.0967 33.1457 36.1971 33.4034ZM37.4178 34.9699C37.0653 34.3219 36.073 32.0622 35.9008 31.6484H35.7821C35.6251 31.9886 34.5774 34.3716 34.2138 34.9699C34.2611 34.965 34.3476 34.9602 34.4137 34.9602C34.4703 34.9602 34.5422 34.965 34.5922 34.9699C34.6774 34.7313 34.9397 34.0279 35.0945 33.721C35.2899 33.6914 35.4873 33.6779 35.6848 33.6806C35.9052 33.6774 36.1255 33.6909 36.3438 33.721C36.4741 33.9782 36.7418 34.6621 36.8757 34.9699C36.952 34.965 37.0899 34.9602 37.1519 34.9602C37.2139 34.9602 37.3393 34.965 37.4178 34.9699ZM32.3345 34.9748C32.3055 34.471 32.2961 33.7706 32.2961 33.1936C32.2961 32.6725 32.3006 31.887 32.3345 31.6337C32.2582 31.6386 32.1435 31.6484 32.1034 31.6484C32.0414 31.6484 31.9151 31.6386 31.8316 31.6337C31.8629 31.887 31.87 32.6725 31.87 33.03C31.4685 33.0583 31.137 33.0681 30.933 33.0681C30.7211 33.0681 30.3213 33.0583 29.8216 33.0371C29.8216 32.6725 29.8261 31.887 29.8595 31.6337C29.7832 31.6386 29.6717 31.6484 29.6289 31.6484C29.5673 31.6484 29.4433 31.6386 29.3576 31.6337C29.3911 31.887 29.3951 32.6725 29.3951 33.1936C29.3951 33.7702 29.3862 34.471 29.3576 34.9748C29.4339 34.9699 29.5673 34.9602 29.6217 34.9602C29.6597 34.9602 29.7832 34.9699 29.8595 34.9748C29.831 34.471 29.8216 33.721 29.8216 33.3493C30.3213 33.3205 30.631 33.3116 30.9094 33.3116C31.1713 33.3116 31.4711 33.3205 31.8709 33.3493C31.8709 33.7112 31.8611 34.471 31.8325 34.9748C31.9088 34.9699 32.0422 34.9602 32.0971 34.9602C32.1346 34.9602 32.2582 34.9699 32.3345 34.9748ZM27.4573 34.6719L27.0767 34.7029C27.0575 34.3219 27.0526 33.6975 27.0526 33.1949C27.0526 32.6738 27.0575 31.8883 27.0906 31.6351C27.0143 31.64 26.9032 31.6497 26.8599 31.6497C26.7956 31.6497 26.6721 31.64 26.5886 31.6351C26.6198 31.8883 26.6265 32.6738 26.6265 33.1949C26.6265 33.7715 26.6198 34.141 26.6007 34.6497C26.3776 34.683 26.0077 34.694 25.6342 34.694H25.0252C25.0056 34.1711 25.0007 33.7715 25.0007 33.1945C25.0007 32.6734 25.0056 31.8879 25.039 31.6346C24.9627 31.6395 24.8485 31.6493 24.8057 31.6493C24.7441 31.6493 24.6205 31.6395 24.5344 31.6346C24.5679 31.8879 24.5723 32.6734 24.5723 33.1945C24.5723 33.7711 24.5679 34.1702 24.5487 34.694H23.8892C23.5824 34.6954 23.2758 34.6806 22.9706 34.6497C22.9563 34.3605 22.9469 33.772 22.9469 33.1949C22.9469 32.6738 22.9541 31.8883 22.9875 31.6351C22.909 31.64 22.797 31.6497 22.7542 31.6497C22.6921 31.6497 22.5686 31.64 22.4829 31.6351C22.5159 31.8883 22.5208 32.6738 22.5208 33.1949C22.5208 33.7715 22.5119 34.4723 22.4829 34.9761C22.5877 34.9664 22.8162 34.9615 22.9875 34.9615C23.5943 34.9615 24.3586 34.9761 24.8168 34.9761C25.2751 34.9761 26.1902 34.9615 26.4186 34.9615C27.054 34.9615 27.2115 34.9996 27.2115 35.7186H27.3538L27.4573 34.6719ZM20.2172 34.9748C20.1886 34.471 20.1788 33.7706 20.1788 33.1936C20.1788 32.6725 20.1837 31.887 20.2172 31.6337C20.1764 31.6427 20.1349 31.6476 20.0932 31.6484C20.0594 31.6487 20.0259 31.6437 19.9937 31.6337C19.4136 32.3793 18.1559 33.6429 17.5562 34.2226V33.1936C17.5562 32.6725 17.5611 31.887 17.5941 31.6337C17.5178 31.6386 17.4063 31.6484 17.363 31.6484C17.2992 31.6484 17.1756 31.6386 17.0922 31.6337C17.123 31.887 17.1305 32.6725 17.1305 33.1936C17.1305 33.7702 17.1207 34.471 17.0922 34.9748C17.1218 34.9645 17.1531 34.9595 17.1845 34.9602C17.2208 34.9595 17.2569 34.9645 17.2916 34.9748C17.8716 34.3171 19.0058 33.1009 19.7505 32.4339V33.1936C19.7505 33.7702 19.7411 34.471 19.7126 34.9748C19.7889 34.9699 19.9223 34.9602 19.9803 34.9602C20.0173 34.9602 20.1409 34.9699 20.2172 34.9748ZM15.2093 34.9699C14.8595 34.3219 13.8645 32.0622 13.6923 31.6484H13.5763C13.4197 31.9886 12.3716 34.3716 12.008 34.9699C12.0553 34.965 12.1418 34.9602 12.2079 34.9602C12.2627 34.9602 12.3341 34.965 12.3886 34.9699C12.7196 34.0616 13.3434 32.7057 13.5196 32.3345C13.8458 33.037 14.4075 34.3171 14.6667 34.9699C14.7448 34.965 14.8809 34.9602 14.9429 34.9602C15.005 34.9602 15.133 34.965 15.2093 34.9699ZM10.1278 34.9748C10.0988 34.471 10.0899 33.7706 10.0899 33.1936C10.0899 32.6725 10.0948 31.887 10.1278 31.6337C10.087 31.6425 10.0455 31.6474 10.0037 31.6484C9.96988 31.6486 9.93618 31.6436 9.9038 31.6337C9.32377 32.3793 8.06466 33.6429 7.46678 34.2226V33.1936C7.46678 32.6725 7.47169 31.887 7.50515 31.6337C7.42885 31.6386 7.31463 31.6484 7.2718 31.6484C7.20978 31.6484 7.08619 31.6386 7.00052 31.6337C7.03354 31.887 7.03845 32.6725 7.03845 33.1936C7.03845 33.7702 7.02863 34.471 7.00052 34.9748C7.03111 34.9645 7.06327 34.9595 7.09556 34.9602C7.13106 34.9596 7.16644 34.9645 7.20041 34.9748C7.78044 34.3171 8.91373 33.1009 9.66153 32.4339V33.1936C9.66153 33.7702 9.65171 34.471 9.62316 34.9748C9.69945 34.9699 9.83286 34.9602 9.89086 34.9602C9.92656 34.9602 10.0515 34.9699 10.1278 34.9748ZM5.16807 34.9748L3.49892 33.1311C3.95581 32.672 4.7036 31.993 5.11542 31.6333C5.04403 31.6431 4.90572 31.6479 4.85842 31.6479C4.81113 31.6479 4.68709 31.6382 4.62016 31.6333C4.46534 31.8107 3.50874 32.8308 3.05408 33.1643C3.05408 32.672 3.05899 31.8866 3.09022 31.6333C3.01571 31.6382 2.90193 31.6479 2.8591 31.6479C2.79708 31.6479 2.67349 31.6382 2.58738 31.6333C2.62084 31.8866 2.62575 32.672 2.62575 33.1643C2.16886 32.833 1.21404 31.8085 1.05744 31.6333C0.99051 31.6382 0.874057 31.6479 0.819177 31.6479C0.77456 31.6479 0.633567 31.6431 0.562179 31.6333C0.976678 31.993 1.72224 32.672 2.17823 33.1311L0.512207 34.9748C0.605012 34.965 0.74065 34.9602 0.805346 34.9602C0.894581 34.9602 1.06681 34.965 1.14266 34.9748C1.44918 34.5605 2.31164 33.5746 2.62575 33.293C2.62575 33.7706 2.61147 34.5703 2.58738 34.9748C2.66368 34.9699 2.79708 34.9602 2.85509 34.9602C2.89301 34.9602 3.0166 34.9699 3.09111 34.9748C3.06925 34.5703 3.05497 33.7706 3.05497 33.293C3.3673 33.5737 4.23333 34.5605 4.53807 34.9748C4.61169 34.965 4.78302 34.9602 4.87315 34.9602C4.93918 34.9602 5.07214 34.965 5.16807 34.9748Z"
    fill="#003D1C"
  />
  <path
    fill-rule="evenodd"
    clip-rule="evenodd"
    d="M41.0095 38.1027C40.9475 38.1124 40.7713 38.1213 40.7334 38.1213C40.2908 38.1213 39.7964 37.8778 39.7964 37.3788C39.7964 37.024 40.1176 36.8253 40.4795 36.8253C40.651 36.8285 40.8217 36.849 40.989 36.8865C41.0046 37.1136 41.0095 37.6436 41.0095 38.1027ZM41.474 39.9455C41.445 39.4394 41.4356 38.7418 41.4356 38.1621C41.4356 37.6436 41.4406 36.8581 41.474 36.6049C41.3357 36.6146 40.9948 36.6191 40.9332 36.6191C40.8239 36.6191 40.5527 36.6049 40.4193 36.6049C39.679 36.6049 39.3551 37.0484 39.3551 37.5066C39.3551 37.9559 39.7009 38.3049 40.2814 38.3559C39.9048 38.8052 39.2458 39.5721 38.8982 39.9455C38.9843 39.9362 39.1508 39.9318 39.2315 39.9318C39.3315 39.9318 39.4412 39.9362 39.5412 39.9455C39.8597 39.502 40.4576 38.7223 40.8239 38.3559H41.0095C41.0095 38.7458 40.9997 39.4394 40.9694 39.9455C41.0475 39.9406 41.1809 39.9318 41.2371 39.9318C41.2741 39.9318 41.3977 39.9406 41.474 39.9455ZM36.7633 39.9455C36.7347 39.4394 36.7253 38.7418 36.7253 38.1621C36.7253 37.6436 36.7298 36.8581 36.7633 36.6049C36.7226 36.6137 36.6813 36.6184 36.6397 36.6191C36.6058 36.6194 36.5721 36.6146 36.5397 36.6049C35.9597 37.3478 34.7019 38.6136 34.1027 39.1911V38.1621C34.1027 37.6436 34.1072 36.8581 34.1402 36.6049C34.0648 36.6098 33.9528 36.6191 33.91 36.6191C33.8479 36.6191 33.7239 36.6098 33.6382 36.6049C33.6695 36.8581 33.6766 37.6436 33.6766 38.1621C33.6766 38.7418 33.6668 39.4394 33.6382 39.9455C33.6683 39.9357 33.6999 39.931 33.7315 39.9318C33.7675 39.9312 33.8034 39.9358 33.8381 39.9455C34.4182 39.2878 35.5519 38.0694 36.297 37.405V38.1621C36.297 38.7418 36.2876 39.4394 36.2586 39.9455C36.3349 39.9406 36.4683 39.9318 36.5264 39.9318C36.5634 39.9318 36.687 39.9406 36.7633 39.9455ZM31.0937 39.9455C31.0656 39.4394 31.0558 38.7418 31.0558 38.1621C31.0558 37.6436 31.0607 36.8581 31.0937 36.6049C31.0183 36.6098 30.9036 36.6191 30.8608 36.6191C30.7988 36.6191 30.6752 36.6098 30.5931 36.6049C30.6243 36.8581 30.6315 37.6436 30.6315 38.0007C30.2299 38.0295 29.8984 38.0388 29.6945 38.0388C29.4803 38.0388 29.0828 38.0295 28.5831 38.0055C28.5831 37.6436 28.5875 36.8581 28.621 36.6049C28.5447 36.6098 28.4327 36.6191 28.3876 36.6191C28.3261 36.6191 28.202 36.6098 28.1199 36.6049C28.1507 36.8581 28.1574 37.6436 28.1574 38.1621C28.1574 38.7418 28.1485 39.4394 28.1199 39.9455C28.1935 39.9406 28.3269 39.9318 28.3836 39.9318C28.422 39.9318 28.5456 39.9406 28.6219 39.9455C28.5933 39.4394 28.5839 38.6894 28.5839 38.3178C29.0837 38.2916 29.3906 38.2823 29.6717 38.2823C29.9332 38.2823 30.2335 38.2916 30.6332 38.3178C30.6332 38.6797 30.6234 39.4394 30.5949 39.9455C30.6685 39.9406 30.8019 39.9318 30.8594 39.9318C30.8938 39.9318 31.0183 39.9406 31.0937 39.9455ZM24.7343 38.3745C24.5795 38.3914 24.3774 38.4056 24.2654 38.4056C24.1046 38.4039 23.9441 38.3936 23.7844 38.3745L24.2654 37.303C24.5393 37.904 24.6344 38.1164 24.7343 38.3745ZM25.9555 39.9406C25.6057 39.2926 24.6107 37.0329 24.4385 36.6191H24.3216C24.1646 36.9597 23.1169 39.3423 22.7533 39.9406C22.801 39.9362 22.8871 39.9318 22.9532 39.9318C23.0081 39.9318 23.0795 39.9362 23.1317 39.9406C23.2209 39.702 23.4792 38.999 23.6363 38.6894C23.8317 38.6611 24.0291 38.6476 24.2266 38.6491C24.4471 38.6472 24.6674 38.6607 24.886 38.6894C25.0096 38.9476 25.2809 39.6333 25.4116 39.9406C25.4901 39.9362 25.6262 39.9318 25.6878 39.9318C25.7494 39.9318 25.8792 39.9362 25.9555 39.9406ZM20.5956 39.9455C20.567 39.4394 20.5577 38.7418 20.5577 38.1621C20.5577 37.6436 20.5621 36.8581 20.5956 36.6049C20.1289 36.6382 19.4743 36.6492 19.0844 36.6492C18.6199 36.6492 17.9631 36.6395 17.5299 36.6049C17.5629 36.8581 17.5678 37.6436 17.5678 38.1621C17.5678 38.7418 17.5589 39.4394 17.5299 39.9455C17.6062 39.9406 17.7396 39.9318 17.7976 39.9318C17.836 39.9318 17.9596 39.9406 18.0359 39.9455C18.0073 39.4394 17.9975 38.7418 17.9975 38.1621C17.9975 37.6436 18.0024 37.0923 18.0171 36.9269C18.3192 36.9034 18.6668 36.8914 19.0857 36.8914C19.5426 36.8914 19.7755 36.9034 20.1119 36.9269C20.1217 37.0923 20.1311 37.6485 20.1311 38.1621C20.1311 38.7418 20.1217 39.4394 20.0932 39.9455C20.1695 39.9406 20.3029 39.9318 20.3609 39.9318C20.3957 39.9318 20.5193 39.9406 20.5956 39.9455ZM15.2044 39.9455C15.1045 39.3472 14.8952 37.6108 14.7908 36.6191H14.7016C14.2135 37.4919 13.6187 38.5449 13.2292 39.2456C12.9579 38.8465 11.9986 37.0826 11.7702 36.6191H11.6747C11.5855 37.3576 11.3084 39.3166 11.1799 39.9455C11.2461 39.9358 11.3129 39.9312 11.3798 39.9318C11.4404 39.9317 11.501 39.9363 11.5609 39.9455C11.5609 39.4133 11.7367 37.9749 11.8081 37.5465C12.2226 38.2823 12.8053 39.3995 13.0717 39.9318H13.1609C13.5794 39.0988 14.2674 37.8095 14.4548 37.5066C14.5334 38.0978 14.6882 39.5911 14.7167 39.9459C14.8005 39.9368 14.8846 39.9322 14.9688 39.9322C15.0476 39.9319 15.1262 39.9363 15.2044 39.9455ZM8.62374 38.2402C8.62374 39.196 8.07138 39.7845 7.25532 39.7845C6.35315 39.7841 5.91098 39.0891 5.91098 38.3014C5.91098 37.3407 6.43256 36.7659 7.27986 36.7659C8.15704 36.7681 8.62374 37.3478 8.62374 38.2402ZM9.13506 38.2255C9.13506 37.1801 8.33194 36.5508 7.26959 36.5508C6.19341 36.5508 5.39565 37.2578 5.39565 38.3014C5.39565 39.3658 6.18315 40.0001 7.23479 40.0001C8.34711 40.0001 9.13506 39.2359 9.13506 38.2255ZM3.51858 39.9455C3.08043 39.4794 2.26393 38.5755 1.85701 38.1027C2.37369 37.5913 3.01708 37.0049 3.47084 36.6049C3.40391 36.6098 3.29504 36.6191 3.22321 36.6191C3.15137 36.6191 3.05411 36.6098 2.97335 36.6049C2.62578 36.9859 1.81329 37.8423 1.41173 38.1359C1.41173 37.6436 1.41619 36.8581 1.44921 36.6049C1.37336 36.6098 1.25914 36.6191 1.21586 36.6191C1.15428 36.6191 1.03069 36.6098 0.94458 36.6049C0.97849 36.8581 0.982951 37.6436 0.982951 38.1621C0.982951 38.7418 0.973582 39.4394 0.94458 39.9455C1.02088 39.9406 1.15428 39.9318 1.21229 39.9318C1.24977 39.9318 1.3738 39.9406 1.44965 39.9455C1.4211 39.4394 1.41217 38.7418 1.41217 38.2601C1.90297 38.7804 2.50933 39.4359 2.89438 39.9455C2.97558 39.9362 3.1304 39.9318 3.21116 39.9318C3.31378 39.9318 3.42087 39.9362 3.51858 39.9455Z"
    fill="#003D1C"
  />
</svg>
