<svg
  width="34"
  height="38"
  viewBox="0 0 34 38"
  fill="none"
  xmlns="http://www.w3.org/2000/svg"
>
  <g clip-path="url(#clip0_54_160)">
    <path
      fill-rule="evenodd"
      clip-rule="evenodd"
      d="M16.9338 0.269958L33.0707 9.5866V28.2199L28.7686 30.7037L26.3586 29.4611L23.8607 28.1731L23.3449 33.835L16.9338 37.5365L0.796875 28.2199V9.5866L16.9338 0.269958ZM15.7784 33.4089L15.7785 33.3666L15.8543 33.4089V19.2808L15.7842 19.2402L15.7843 19.1782L3.42509 12.0426L3.46312 14.8208L13.4165 20.5674V23.4993L3.42509 17.7308L3.46312 20.509L13.4165 26.2556V29.289L3.42509 23.5205L3.46312 26.2987L13.4165 32.0453V32.0466L13.485 32.0848L15.7784 33.4089ZM4.61643 9.8706L4.54125 9.82579L16.5846 2.95473L16.9009 2.77122L29.2601 9.90683L26.8351 11.263L16.8813 5.51618L14.342 6.98221L24.3337 12.7509L21.9087 14.1071L11.955 8.36035L9.32826 9.87692L19.3203 15.6458L16.8952 17.002L6.94126 11.2551L6.93998 11.2558L6.86096 11.2087L4.57997 9.89176L4.61643 9.8706ZM28.0064 27.4819L30.4441 26.1614L30.3352 12.7935L30.3393 11.8394L30.3275 11.8463L30.3274 11.8365L28.0064 13.1952V13.2024L17.9294 19.09L18.052 21.611V33.3732L20.4898 32.1035V20.4137L28.0064 16.0104V27.4819Z"
      fill="#02A68E"
    />
  </g>
  <defs>
    <clipPath id="clip0_54_160">
      <rect
        width="34"
        height="38"
        fill="white"
      />
    </clipPath>
  </defs>
</svg>
